<svg width="31" height="28" fill="none" xmlns="http://www.w3.org/2000/svg"><path d="M28.093 14.567c1.436-1.479 2.302-3.393 2.302-5.485 0-4.681-4.7-8.477-10.051-8.477-5.35 0-9.688 3.796-9.688 8.477l9.688 8.477c1.43 0 3.15-.272 4.372-.758a6.037 6.037 0 004.468 1.969 4.281 4.281 0 01-1.091-4.203z" fill="#FC9B09"/><path d="M15.652 10.293c2.814 1.483 4.696 4.182 4.696 7.266 0 4.681-4.337 8.476-9.688 8.476-1.43 0-3.15-.271-4.372-.757a6.037 6.037 0 01-4.468 1.968 4.281 4.281 0 001.09-4.202C1.476 21.565.61 19.65.61 17.559c0-4.682 4.7-8.477 10.05-8.477 1.826 0 3.535.442 4.992 1.211zm-.156-4.238a.606.606 0 100 1.211.606.606 0 000-1.211z" fill="#fff"/><path d="M20.344 0c-5.451 0-9.925 3.758-10.271 8.492C4.882 8.752 0 12.496 0 17.559c0 2.115.837 4.165 2.361 5.79a3.682 3.682 0 01-.973 3.469.606.606 0 00.428 1.034 6.686 6.686 0 004.628-1.87c1.204.41 2.776.659 4.212.659 5.45 0 9.924-3.758 10.27-8.49 1.269-.057 2.587-.29 3.63-.646a6.678 6.678 0 004.628 1.87.605.605 0 00.428-1.034 3.682 3.682 0 01-.973-3.469C30.163 13.248 31 11.198 31 9.082 31 3.822 25.742 0 20.344 0zm-9.688 25.43c-1.429 0-3.057-.28-4.148-.715a.606.606 0 00-.67.154 5.463 5.463 0 01-2.718 1.613 4.897 4.897 0 00.37-3.604.605.605 0 00-.149-.256c-1.373-1.415-2.13-3.213-2.13-5.063 0-4.267 4.325-7.872 9.445-7.872 4.835 0 9.082 3.363 9.082 7.872 0 4.34-4.074 7.87-9.082 7.87zM27.66 14.145a.607.607 0 00-.148.256 4.897 4.897 0 00.369 3.604 5.462 5.462 0 01-2.717-1.613.606.606 0 00-.671-.153c-.945.376-2.294.636-3.567.699-.177-2.29-1.32-4.442-3.272-6.04h7.898a.605.605 0 100-1.21h-9.758a11.292 11.292 0 00-4.506-1.194c.348-4.066 4.277-7.283 9.057-7.283 5.12 0 9.445 3.604 9.445 7.871 0 1.85-.757 3.648-2.13 5.063z" fill="#37373F"/><path d="M15.5 15.742H7.871a.605.605 0 100 1.211H15.5a.605.605 0 100-1.21z" fill="#C94042"/><path d="M15.5 19.375H5.45a.605.605 0 100 1.21H15.5a.605.605 0 100-1.21z" fill="#37373F"/><path d="M25.547 6.055h-7.629a.605.605 0 100 1.21h7.629a.605.605 0 100-1.21z" fill="#fff"/></svg>